<svg xmlns="http://www.w3.org/2000/svg" width="21" height="18">
    <path fill="#AAABB8" fill-rule="evenodd" d="M20.717 1.677l-2.446 2.446a11.685 11.685 0 0 1 2.686 3.683.462.462 0 0 1 0 .388C19.121 12.214 15.123 15 10.485 15c-.948 0-1.864-.126-2.744-.346l-3.064 3.064a.987.987 0 0 1-1.395-1.395l2.401-2.401c-.049-.023-.1-.039-.148-.062l2.058-2.058c.039.031.085.054.125.084l1.24-1.24c-.044-.027-.098-.039-.141-.068l4.227-4.227c.027.044.039.099.065.145l1.243-1.244c-.029-.041-.051-.088-.081-.129l2.327-2.326c.042.027.078.062.12.089L19.322.282a.987.987 0 0 1 1.395 1.395zm-7.398 7.398a3.055 3.055 0 0 1-1.826 1.827l-1.847 1.846c.272.052.551.082.839.082 2.616 0 4.74-2.163 4.74-4.829 0-.262-.024-.518-.064-.768l-1.842 1.842zm-1.814-3.976L7.622 8.983a3.114 3.114 0 0 1-.172-.984c0-1.708 1.358-3.092 3.035-3.092.36 0 .7.075 1.02.192zm-1.02-1.927c-2.617 0-4.74 2.16-4.74 4.829 0 .828.223 1.595.583 2.276l-2.525 2.524A11.74 11.74 0 0 1 .012 8.194a.469.469 0 0 1 0-.388C1.848 3.785 5.846 1 10.485 1c1.51 0 2.94.321 4.262.858l-1.951 1.951a4.62 4.62 0 0 0-2.311-.637z"/>
</svg>
