<svg xmlns="http://www.w3.org/2000/svg" width="21" height="14">
    <path fill="#9797A2" fill-rule="evenodd" d="M10.485 14C5.846 14 1.848 11.214.012 7.194a.469.469 0 0 1 0-.388C1.848 2.785 5.846 0 10.485 0c4.638 0 8.636 2.785 10.472 6.806a.462.462 0 0 1 0 .388C19.121 11.214 15.123 14 10.485 14zm0-11.828c-2.617 0-4.74 2.16-4.74 4.829 0 2.666 2.12 4.829 4.74 4.829 2.617 0 4.74-2.163 4.74-4.829s-2.121-4.829-4.74-4.829zm0 7.918c-1.677 0-3.035-1.384-3.035-3.091 0-1.708 1.358-3.092 3.035-3.092 1.675 0 3.034 1.384 3.034 3.092 0 1.707-1.359 3.091-3.034 3.091z"/>
</svg>
